#!OML:ASF H:\Dans Jumps\Project 1\Capture day 1\Session 1\subject.ASF
:FULLY-SPECIFIED
:DEGREES
565
root 1.04252 17.6746 13.0274 6.0777 2.5653 -2.40395
lowerback -6.02615 -0.957911 0.586798
upperback 0.304111 -1.3782 1.57796
thorax 3.71913 -0.68859 1.17339
lowerneck -9.30757 -4.24114 -4.02443
upperneck 8.12315 -5.58099 4.22007
head 4.17952 -2.64896 1.58463
rclavicle 1.83379e-014 1.27222e-014
rhumerus -25.9012 -18.4912 -82.1589
rradius 22.5722
rwrist 40.3242
rhand -18.4633 -25.9432
rfingers 7.12502
rthumb 7.82319 -55.7784
lclavicle 1.83379e-014 1.27222e-014
lhumerus -23.1769 -1.97023 90.7899
lradius 18.4587
lwrist 1.0106
lhand -24.2187 -5.30722
lfingers 7.12502
lthumb 2.26616 24.6605
rfemur -12.4409 -3.34883 21.6366
rtibia 20.3434
rfoot -13.5996 2.13281
rtoes 17.6358
lfemur -6.67753 8.15287 -16.8652
ltibia 14.9443
lfoot -11.2062 7.25652
ltoes -6.21146
566
root 1.04293 17.6744 13.0269 6.06647 2.56747 -2.39998
lowerback -6.0299 -0.959716 0.577869
upperback 0.30963 -1.38007 1.57653
thorax 3.72716 -0.689685 1.17665
lowerneck -9.34058 -4.21971 -4.01113
upperneck 8.1488 -5.55114 4.19577
head 4.19048 -2.63459 1.57627
rclavicle 6.69656e-015 -6.26172e-015
rhumerus -25.8962 -18.4842 -82.1739
rradius 22.5805
rwrist 40.3092
rhand -18.4723 -25.9211
rfingers 7.12502
rthumb 7.81446 -55.7567
lclavicle 6.69656e-015 -6.26172e-015
lhumerus -23.1665 -1.93262 90.7785
lradius 18.4378
lwrist 0.973011
lhand -24.2249 -5.30265
lfingers 7.12502
lthumb 2.26019 24.6651
rfemur -12.4307 -3.35908 21.6301
rtibia 20.3466
rfoot -13.6014 2.1385
rtoes 17.632
lfemur -6.66336 8.15072 -16.8701
ltibia 14.9379
lfoot -11.2026 7.25869
ltoes -6.23552
567
root 1.04333 17.6743 13.0264 6.05582 2.56923 -2.39753
lowerback -6.03415 -0.961111 0.569515
upperback 0.316002 -1.38149 1.57583
thorax 3.73636 -0.69055 1.18037
lowerneck -9.37787 -4.1961 -3.99814
upperneck 8.17175 -5.51847 4.17536
head 4.20134 -2.61859 1.5693
rclavicle 2.09594e-014 8.84592e-015
rhumerus -25.8883 -18.4819 -82.187
rradius 22.5848
rwrist 40.3015
rhand -18.4815 -25.9005
rfingers 7.12502
rthumb 7.80565 -55.7364
lclavicle 2.09594e-014 8.84592e-015
lhumerus -23.1577 -1.8816 90.7652
lradius 18.4138
lwrist 0.919349
lhand -24.2305 -5.3042
lfingers 7.12502
lthumb 2.25478 24.6636
rfemur -12.4215 -3.36915 21.6255
rtibia 20.3492
rfoot -13.6022 2.14565
rtoes 17.6326
lfemur -6.65037 8.14675 -16.8733
ltibia 14.9329
lfoot -11.1995 7.26207
ltoes -6.25999
568
root 1.04377 17.6741 13.0259 6.04508 2.57014 -2.39687
lowerback -6.03839 -0.962332 0.562631
upperback 0.322991 -1.38282 1.57592
thorax 3.74618 -0.691353 1.18408
lowerneck -9.41821 -4.17227 -3.99129
upperneck 8.19407 -5.4853 4.16221
head 4.21288 -2.60211 1.56552
rclavicle -5.64051e-015 1.30204e-014
rhumerus -25.8794 -18.4696 -82.202
rradius 22.5894
rwrist 40.284
rhand -18.4934 -25.8898
rfingers 7.12502
rthumb 7.79412 -55.7262
lclavicle -5.64051e-015 1.30204e-014
lhumerus -23.152 -1.81202 90.7489
lradius 18.3885
lwrist 0.843775
lhand -24.2325 -5.31378
lfingers 7.12502
lthumb 2.25281 24.6541
rfemur -12.4114 -3.37968 21.6228
rtibia 20.3506
rfoot -13.6034 2.15343
rtoes 17.6255
lfemur -6.63804 8.14389 -16.8748
ltibia 14.931
lfoot -11.1984 7.26528
ltoes -6.27046
569
root 1.04416 17.674 13.0254 6.0358 2.56963 -2.40044
lowerback -6.04007 -0.962972 0.557916
upperback 0.327715 -1.38354 1.57831
thorax 3.7522 -0.691832 1.18907
lowerneck -9.44958 -4.14928 -3.99636
upperneck 8.20938 -5.45287 4.15998
head 4.22147 -2.58593 1.56718
rclavicle -4.47266e-015 -7.7526e-015
rhumerus -25.8731 -18.4514 -82.2155
rradius 22.5931
rwrist 40.26
rhand -18.5112 -25.8895
rfingers 7.12502
rthumb 7.77695 -55.7264
lclavicle -4.47266e-015 -7.7526e-015
lhumerus -23.1529 -1.74213 90.7356
lradius 18.3616
lwrist 0.766512
lhand -24.227 -5.31034
lfingers 7.12502
lthumb 2.25815 24.6575
rfemur -12.4033 -3.38369 21.6252
rtibia 20.351
rfoot -13.6041 2.15647
rtoes 17.6189
lfemur -6.62926 8.14006 -16.8715
ltibia 14.9318
lfoot -11.1977 7.27117
ltoes -6.27212
